<svg width="39" height="36" viewBox="0 0 39 36" fill="none" xmlns="http://www.w3.org/2000/svg">
<rect width="38.5007" height="36" rx="4" fill="#443149" fill-opacity="0.36"/>
<path d="M30.2807 11.2198L27.2807 8.21979C27.14 8.07906 26.9491 8 26.7501 8C26.5511 8 26.3602 8.07906 26.2195 8.21979C26.0787 8.36052 25.9997 8.55139 25.9997 8.75042C25.9997 8.94944 26.0787 9.14031 26.2195 9.28104L27.9398 11.0004H26.7501C22.1254 11.0004 21.0267 13.6367 20.0582 15.9617C19.1788 18.072 18.472 19.767 15.4195 19.9779C15.2279 19.0686 14.7055 18.2627 13.9536 17.7166C13.2017 17.1706 12.2738 16.9231 11.3498 17.0223C10.4258 17.1215 9.57152 17.5602 8.95262 18.2535C8.33372 18.9467 7.99427 19.845 8.00007 20.7743C8.00588 21.7036 8.35653 22.5976 8.98405 23.2831C9.61157 23.9685 10.4712 24.3965 11.3964 24.4842C12.3216 24.5718 13.2463 24.3128 13.9914 23.7573C14.7364 23.2019 15.2487 22.3896 15.4288 21.4779C19.4845 21.2295 20.5232 18.7451 21.442 16.5382C22.3823 14.2817 23.1248 12.5004 26.7501 12.5004H27.9398L26.2195 14.2198C26.0787 14.3605 25.9997 14.5514 25.9997 14.7504C25.9997 14.9494 26.0787 15.1403 26.2195 15.281C26.3602 15.4218 26.5511 15.5008 26.7501 15.5008C26.9491 15.5008 27.14 15.4218 27.2807 15.281L30.2807 12.281C30.3505 12.2114 30.4058 12.1287 30.4435 12.0376C30.4813 11.9466 30.5007 11.849 30.5007 11.7504C30.5007 11.6519 30.4813 11.5543 30.4435 11.4632C30.4058 11.3722 30.3505 11.2894 30.2807 11.2198ZM11.7501 23.0004C11.3051 23.0004 10.8701 22.8685 10.5001 22.6212C10.1301 22.374 9.84167 22.0226 9.67137 21.6115C9.50107 21.2003 9.45651 20.7479 9.54333 20.3115C9.63015 19.875 9.84444 19.4741 10.1591 19.1594C10.4738 18.8448 10.8747 18.6305 11.3111 18.5436C11.7476 18.4568 12.2 18.5014 12.6111 18.6717C13.0223 18.842 13.3737 19.1304 13.6209 19.5004C13.8681 19.8704 14.0001 20.3054 14.0001 20.7504C14.0001 21.3472 13.763 21.9194 13.3411 22.3414C12.9191 22.7634 12.3468 23.0004 11.7501 23.0004Z" fill="#FCF5FE"/>
</svg>
