<svg width="36" height="36" viewBox="0 0 36 36" fill="none" xmlns="http://www.w3.org/2000/svg">
<rect width="35.5" height="35.5" rx="4" fill="#443149" fill-opacity="0.36"/>
<path d="M17.75 8C15.8216 8 13.9366 8.57183 12.3332 9.64317C10.7298 10.7145 9.48013 12.2373 8.74218 14.0188C8.00422 15.8004 7.81114 17.7608 8.18735 19.6521C8.56355 21.5434 9.49215 23.2807 10.8557 24.6443C12.2193 26.0079 13.9566 26.9365 15.8479 27.3127C17.7392 27.6889 19.6996 27.4958 21.4812 26.7578C23.2627 26.0199 24.7855 24.7702 25.8568 23.1668C26.9282 21.5634 27.5 19.6784 27.5 17.75C27.4973 15.165 26.4692 12.6866 24.6413 10.8587C22.8134 9.03084 20.335 8.00273 17.75 8ZM17.75 26C16.1183 26 14.5233 25.5161 13.1665 24.6096C11.8098 23.7031 10.7524 22.4146 10.128 20.9071C9.50358 19.3996 9.3402 17.7408 9.65853 16.1405C9.97685 14.5402 10.7626 13.0702 11.9164 11.9164C13.0702 10.7626 14.5402 9.97685 16.1405 9.65852C17.7409 9.34019 19.3997 9.50357 20.9071 10.128C22.4146 10.7524 23.7031 11.8098 24.6096 13.1665C25.5161 14.5233 26 16.1183 26 17.75C25.9975 19.9373 25.1275 22.0343 23.5809 23.5809C22.0343 25.1275 19.9373 25.9975 17.75 26ZM21.5 19.625C21.5 20.3212 21.2234 20.9889 20.7312 21.4812C20.2389 21.9734 19.5712 22.25 18.875 22.25H18.5V23C18.5 23.1989 18.421 23.3897 18.2803 23.5303C18.1397 23.671 17.9489 23.75 17.75 23.75C17.5511 23.75 17.3603 23.671 17.2197 23.5303C17.079 23.3897 17 23.1989 17 23V22.25H15.5C15.3011 22.25 15.1103 22.171 14.9697 22.0303C14.829 21.8897 14.75 21.6989 14.75 21.5C14.75 21.3011 14.829 21.1103 14.9697 20.9697C15.1103 20.829 15.3011 20.75 15.5 20.75H18.875C19.1734 20.75 19.4595 20.6315 19.6705 20.4205C19.8815 20.2095 20 19.9234 20 19.625C20 19.3266 19.8815 19.0405 19.6705 18.8295C19.4595 18.6185 19.1734 18.5 18.875 18.5H16.625C15.9288 18.5 15.2611 18.2234 14.7688 17.7312C14.2766 17.2389 14 16.5712 14 15.875C14 15.1788 14.2766 14.5111 14.7688 14.0188C15.2611 13.5266 15.9288 13.25 16.625 13.25H17V12.5C17 12.3011 17.079 12.1103 17.2197 11.9697C17.3603 11.829 17.5511 11.75 17.75 11.75C17.9489 11.75 18.1397 11.829 18.2803 11.9697C18.421 12.1103 18.5 12.3011 18.5 12.5V13.25H20C20.1989 13.25 20.3897 13.329 20.5303 13.4697C20.671 13.6103 20.75 13.8011 20.75 14C20.75 14.1989 20.671 14.3897 20.5303 14.5303C20.3897 14.671 20.1989 14.75 20 14.75H16.625C16.3266 14.75 16.0405 14.8685 15.8295 15.0795C15.6185 15.2905 15.5 15.5766 15.5 15.875C15.5 16.1734 15.6185 16.4595 15.8295 16.6705C16.0405 16.8815 16.3266 17 16.625 17H18.875C19.5712 17 20.2389 17.2766 20.7312 17.7688C21.2234 18.2611 21.5 18.9288 21.5 19.625Z" fill="#FCF5FE"/>
</svg>
