<svg width="34" height="35" viewBox="0 0 34 35" fill="none" xmlns="http://www.w3.org/2000/svg">
<rect width="34" height="34.7501" rx="4" fill="#443149" fill-opacity="0.36"/>
<path d="M24.5 8H9.5C9.10218 8 8.72064 8.15804 8.43934 8.43934C8.15804 8.72064 8 9.10218 8 9.5V14.75C8 19.6925 10.3925 22.6878 12.3997 24.3303C14.5616 26.0984 16.7122 26.6984 16.8059 26.7238C16.9348 26.7588 17.0708 26.7588 17.1997 26.7238C17.2934 26.6984 19.4413 26.0984 21.6059 24.3303C23.6075 22.6878 26 19.6925 26 14.75V9.5C26 9.10218 25.842 8.72064 25.5607 8.43934C25.2794 8.15804 24.8978 8 24.5 8ZM24.5 14.75C24.5 18.2253 23.2194 21.0462 20.6937 23.1331C19.5943 24.0385 18.344 24.743 17 25.2144C15.6736 24.7512 14.4387 24.0592 13.3513 23.1697C10.7956 21.0791 9.5 18.2469 9.5 14.75V9.5H24.5V14.75ZM12.7194 17.5306C12.5786 17.3899 12.4996 17.199 12.4996 17C12.4996 16.801 12.5786 16.6101 12.7194 16.4694C12.8601 16.3286 13.051 16.2496 13.25 16.2496C13.449 16.2496 13.6399 16.3286 13.7806 16.4694L15.5 18.1897L20.2194 13.4694C20.2891 13.3997 20.3718 13.3444 20.4628 13.3067C20.5539 13.269 20.6515 13.2496 20.75 13.2496C20.8485 13.2496 20.9461 13.269 21.0372 13.3067C21.1282 13.3444 21.2109 13.3997 21.2806 13.4694C21.3503 13.5391 21.4056 13.6218 21.4433 13.7128C21.481 13.8039 21.5004 13.9015 21.5004 14C21.5004 14.0985 21.481 14.1961 21.4433 14.2872C21.4056 14.3782 21.3503 14.4609 21.2806 14.5306L16.0306 19.7806C15.961 19.8504 15.8783 19.9057 15.7872 19.9434C15.6962 19.9812 15.5986 20.0006 15.5 20.0006C15.4014 20.0006 15.3038 19.9812 15.2128 19.9434C15.1217 19.9057 15.039 19.8504 14.9694 19.7806L12.7194 17.5306Z" fill="#FCF5FE"/>
</svg>
