<svg width="36" height="36" viewBox="0 0 36 36" fill="none" xmlns="http://www.w3.org/2000/svg">
<rect width="36" height="36" rx="4" fill="#443149" fill-opacity="0.36"/>
<path d="M19.2044 23.7837L18 28L16.7956 23.7837C16.4843 22.6946 15.9006 21.7028 15.0996 20.9018C14.2987 20.1009 13.3069 19.5172 12.2178 19.2059L8 18L12.2163 16.7956C13.3054 16.4843 14.2972 15.9006 15.0982 15.0996C15.8991 14.2987 16.4828 13.3069 16.7941 12.2178L18 8L19.2044 12.2163C19.5157 13.3054 20.0994 14.2972 20.9004 15.0982C21.7013 15.8991 22.6931 16.4828 23.7822 16.7941L28 18L23.7837 19.2044C22.6946 19.5157 21.7028 20.0994 20.9018 20.9004C20.1009 21.7013 19.5172 22.6931 19.2059 23.7822L19.2044 23.7837Z" fill="#FCF5FE"/>
</svg>
