<svg width="36" height="36" viewBox="0 0 36 36" fill="none" xmlns="http://www.w3.org/2000/svg">
<rect width="35.4965" height="35.5" rx="4" fill="#443149" fill-opacity="0.36"/>
<path d="M15.1251 16.6653C15.2392 16.5995 15.3339 16.5048 15.3997 16.3907C15.4655 16.2767 15.5002 16.1473 15.5001 16.0156V9.26562C15.4995 9.14605 15.4702 9.02837 15.4148 8.9224C15.3594 8.81643 15.2795 8.72523 15.1817 8.65643C15.0839 8.58762 14.9711 8.5432 14.8526 8.52686C14.7342 8.51052 14.6135 8.52274 14.5008 8.5625C12.3117 9.33726 10.4707 10.8675 9.3089 12.8781C8.14706 14.8887 7.7405 17.2477 8.16232 19.5312C8.18419 19.6493 8.23409 19.7604 8.30783 19.8552C8.38157 19.95 8.47699 20.0257 8.58607 20.0759C8.68438 20.1219 8.79162 20.1456 8.90014 20.1453C9.03177 20.1454 9.16111 20.1108 9.27514 20.045L15.1251 16.6653ZM14.0001 10.4019V15.5825L9.51139 18.1728C9.50014 18.0312 9.50014 17.8888 9.50014 17.75C9.50147 16.2297 9.92229 14.7393 10.7163 13.4428C11.5102 12.1463 12.6466 11.094 14.0001 10.4019ZM17.7501 8C17.5512 8 17.3605 8.07902 17.2198 8.21967C17.0792 8.36032 17.0001 8.55109 17.0001 8.75V17.3581L9.6117 21.6622C9.52596 21.7119 9.45093 21.7781 9.39092 21.857C9.33092 21.9358 9.28715 22.0258 9.26213 22.1217C9.23711 22.2176 9.23134 22.3175 9.24516 22.4156C9.25898 22.5138 9.29211 22.6082 9.34264 22.6934C10.2086 24.1656 11.4461 25.3844 12.9313 26.228C14.4164 27.0715 16.0971 27.5101 17.805 27.4998C19.5129 27.4896 21.1882 27.0309 22.6631 26.1696C24.138 25.3083 25.3608 24.0747 26.2091 22.5922C27.0573 21.1098 27.5013 19.4305 27.4965 17.7226C27.4917 16.0146 27.0383 14.3379 26.1817 12.8602C25.3251 11.3826 24.0954 10.1559 22.6157 9.30289C21.1359 8.44993 19.4581 8.00064 17.7501 8ZM17.7501 26C16.4409 25.9965 15.151 25.6831 13.9861 25.0854C12.8212 24.4877 11.8144 23.6227 11.048 22.5613L18.128 18.4363C18.2419 18.3705 18.3365 18.2759 18.4023 18.1621C18.4681 18.0482 18.5028 17.919 18.503 17.7875V9.53375C20.6183 9.72567 22.5782 10.7261 23.9745 12.3268C25.3708 13.9274 26.0959 16.0049 25.9989 18.1268C25.9019 20.2487 24.9902 22.2513 23.4537 23.7179C21.9172 25.1845 19.8742 26.0019 17.7501 26Z" fill="#FCF5FE"/>
</svg>
