<svg width="37" height="36" viewBox="0 0 37 36" fill="none" xmlns="http://www.w3.org/2000/svg">
<rect width="37.0015" height="36" rx="4" fill="#443149" fill-opacity="0.36"/>
<path d="M18.5016 13.2519C17.6116 13.2519 16.7416 13.5159 16.0016 14.0103C15.2616 14.5048 14.6848 15.2076 14.3442 16.0299C14.0036 16.8521 13.9145 17.7569 14.0881 18.6298C14.2617 19.5028 14.6903 20.3046 15.3197 20.9339C15.949 21.5633 16.7508 21.9918 17.6237 22.1655C18.4967 22.3391 19.4015 22.25 20.2237 21.9094C21.046 21.5688 21.7488 20.992 22.2433 20.252C22.7377 19.512 23.0016 18.642 23.0016 17.7519C23.0004 16.5588 22.5259 15.415 21.6823 14.5713C20.8386 13.7277 19.6947 13.2532 18.5016 13.2519ZM18.5016 20.7519C17.9083 20.7519 17.3283 20.576 16.8349 20.2463C16.3416 19.9167 15.9571 19.4482 15.73 18.9C15.5029 18.3518 15.4435 17.7486 15.5593 17.1667C15.675 16.5847 15.9608 16.0502 16.3803 15.6306C16.7999 15.2111 17.3344 14.9253 17.9164 14.8096C18.4983 14.6938 19.1015 14.7532 19.6497 14.9803C20.1979 15.2074 20.6664 15.5919 20.9961 16.0852C21.3257 16.5786 21.5016 17.1586 21.5016 17.7519C21.5016 18.5476 21.1856 19.3106 20.623 19.8733C20.0604 20.4359 19.2973 20.7519 18.5016 20.7519ZM28.8085 15.8029C28.7876 15.6973 28.7442 15.5974 28.6813 15.51C28.6184 15.4227 28.5374 15.3499 28.4438 15.2966L25.6473 13.7029L25.636 10.551C25.6357 10.4424 25.6118 10.3353 25.566 10.2369C25.5202 10.1384 25.4535 10.0511 25.3707 9.981C24.3563 9.1229 23.1881 8.46531 21.9282 8.04319C21.829 8.0096 21.7238 7.99718 21.6195 8.0067C21.5152 8.01623 21.4141 8.0475 21.3226 8.0985L18.5016 9.67537L15.6779 8.09569C15.5863 8.0444 15.4851 8.01289 15.3806 8.0032C15.2761 7.99352 15.1707 8.00586 15.0713 8.03944C13.8124 8.46465 12.6455 9.12475 11.6326 9.98475C11.5499 10.0548 11.4833 10.1419 11.4375 10.2402C11.3917 10.3384 11.3677 10.4454 11.3673 10.5538L11.3532 13.7085L8.55664 15.3022C8.46308 15.3555 8.38209 15.4283 8.31916 15.5157C8.25623 15.603 8.21285 15.7029 8.19196 15.8085C7.93601 17.0946 7.93601 18.4186 8.19196 19.7047C8.21285 19.8104 8.25623 19.9102 8.31916 19.9976C8.38209 20.085 8.46308 20.1577 8.55664 20.211L11.3532 21.8047L11.3645 24.9566C11.3648 25.0652 11.3887 25.1724 11.4345 25.2708C11.4803 25.3692 11.5469 25.4565 11.6298 25.5266C12.6442 26.3847 13.8124 27.0423 15.0723 27.4644C15.1715 27.498 15.2766 27.5104 15.3809 27.5009C15.4852 27.4914 15.5864 27.4601 15.6779 27.4091L18.5016 25.8285L21.3254 27.4082C21.4371 27.4704 21.5631 27.5027 21.691 27.5019C21.7729 27.5019 21.8543 27.4886 21.932 27.4626C23.1907 27.0379 24.3576 26.3785 25.3707 25.5191C25.4534 25.4491 25.52 25.3619 25.5658 25.2637C25.6116 25.1655 25.6355 25.0585 25.636 24.9501L25.6501 21.7954L28.4466 20.2016C28.5402 20.1484 28.6212 20.0756 28.6841 19.9882C28.7471 19.9009 28.7904 19.801 28.8113 19.6954C29.0658 18.4103 29.0649 17.0876 28.8085 15.8029ZM27.4023 19.0757L24.7238 20.5991C24.6065 20.6659 24.5093 20.763 24.4426 20.8804C24.3882 20.9741 24.331 21.0735 24.2729 21.1672C24.1985 21.2855 24.1589 21.4222 24.1585 21.5619L24.1445 24.5854C23.4245 25.1507 22.6225 25.6028 21.766 25.926L19.0641 24.4204C18.952 24.3583 18.8258 24.326 18.6976 24.3266H18.6798C18.5663 24.3266 18.452 24.3266 18.3385 24.3266C18.2044 24.3233 18.0717 24.3556 17.9541 24.4204L15.2504 25.9297C14.3921 25.6091 13.5879 25.1592 12.8654 24.5957L12.8551 21.5769C12.8546 21.437 12.815 21.2999 12.7407 21.1813C12.6826 21.0876 12.6254 20.9938 12.572 20.8944C12.5057 20.7753 12.4085 20.6762 12.2907 20.6076L9.60946 19.0804C9.47071 18.2027 9.47071 17.3087 9.60946 16.431L12.2832 14.9047C12.4006 14.838 12.4977 14.7409 12.5645 14.6235C12.6188 14.5297 12.676 14.4304 12.7341 14.3366C12.8085 14.2184 12.8482 14.0816 12.8485 13.9419L12.8626 10.9185C13.5825 10.3531 14.3846 9.90105 15.241 9.57787L17.9391 11.0835C18.0566 11.1486 18.1893 11.181 18.3235 11.1772C18.437 11.1772 18.5513 11.1772 18.6648 11.1772C18.7989 11.1806 18.9316 11.1482 19.0491 11.0835L21.7529 9.57412C22.6112 9.89482 23.4154 10.3447 24.1379 10.9082L24.1482 13.9269C24.1487 14.0669 24.1883 14.2039 24.2626 14.3226C24.3207 14.4163 24.3779 14.5101 24.4313 14.6094C24.4976 14.7286 24.5947 14.8277 24.7126 14.8963L27.3938 16.4235C27.5344 17.3018 27.536 18.1968 27.3985 19.0757H27.4023Z" fill="#FCF5FE"/>
</svg>
