<svg width="114" height="30" viewBox="0 0 114 30" fill="none" xmlns="http://www.w3.org/2000/svg">
<path d="M83.4727 2.14904C83.4727 0.962779 84.4594 0 85.676 0H111.08C112.297 0 113.284 0.962779 113.284 2.14904V27.8514C113.284 29.038 112.297 30 111.08 30H85.676C84.4594 30 83.4727 29.038 83.4727 27.8517V2.14904Z" fill="#888888"/>
<path d="M0.0224609 25.1295H12.4634V21.0446H4.52552V5.46193H0.0224609V25.1295ZM18.7622 25.1295V11.5829H14.2595V25.1295H18.7622ZM16.5112 9.73364C18.0811 9.73364 19.0585 8.69335 19.0585 7.3926C19.0293 6.06352 18.0811 5.05273 16.5411 5.05273C15.0008 5.05273 13.9935 6.06391 13.9935 7.3926C13.9935 8.69335 14.9709 9.73364 16.4817 9.73364H16.5112ZM20.8526 25.1295H25.3553V17.5641C25.3553 17.1593 25.3844 16.7544 25.5036 16.466C25.8286 15.6571 26.5695 14.819 27.8135 14.819C29.4432 14.819 30.0952 16.0615 30.0952 17.8817V25.1291H34.5971V17.3619C34.5971 13.2008 32.3756 11.2646 29.4129 11.2646C26.9842 11.2646 25.9175 12.6224 25.325 13.5474H25.3553V11.5829H20.8526C20.912 12.8541 20.8526 25.1295 20.8526 25.1295ZM40.9493 5.46193H36.4467V25.1295H40.9493V20.7373L42.0746 19.3205L45.5999 25.1295H51.139L45.2151 16.7202L50.3985 10.9994H44.9783C44.9783 10.9994 41.2755 16.1174 40.9493 16.7249V5.46193Z" fill="#888888"/>
<path d="M63.1799 19.4787C63.2393 19.1309 63.3282 18.4636 63.3282 17.709C63.3282 14.2072 61.5506 10.652 56.8705 10.652C51.8642 10.652 49.5535 14.6113 49.5535 18.2023C49.5535 22.6436 52.3678 25.4171 57.2848 25.4171C59.2403 25.4171 61.0466 25.1291 62.5283 24.522L61.9358 21.5483C60.7208 21.9512 59.4767 22.153 57.9367 22.153C55.8337 22.153 53.9975 21.2894 53.8492 19.4496L63.1799 19.4779V19.4787ZM53.8197 16.4326C53.9381 15.2766 54.7089 13.571 56.634 13.571C58.6776 13.571 59.1521 15.3919 59.1521 16.4326H53.8197ZM74.4421 5.46194V12.2703H74.3827C73.7307 11.3173 72.3682 10.6815 70.5622 10.6815C67.0959 10.6815 64.0451 13.4553 64.0742 18.1941C64.0742 22.5866 66.8296 25.4474 70.2652 25.4474C72.1317 25.4474 73.9085 24.6377 74.7977 23.0772H74.8863L75.0645 25.1295H79.0632C79.0041 24.1757 78.9443 22.5288 78.9443 20.9105V5.46155H74.4417L74.4421 5.46194ZM74.4421 18.859C74.4421 19.2053 74.4126 19.5527 74.3528 19.8407C74.0872 21.084 73.0205 21.95 71.717 21.95C69.8513 21.95 68.6363 20.4478 68.6363 18.0784C68.6363 15.8538 69.6738 14.062 71.7469 14.062C73.139 14.062 74.1163 15.0154 74.383 16.1997C74.4421 16.4605 74.4421 16.7497 74.4421 17.0094V18.859Z" fill="#888888"/>
<path d="M92.5095 25.113V11.5664H88.0068V25.113H92.5095ZM90.2589 9.71716C91.8288 9.71716 92.8061 8.67687 92.8061 7.37691C92.7766 6.04743 91.8288 5.03625 90.2888 5.03625C88.7477 5.03625 87.7412 6.04743 87.7412 7.37691C87.7412 8.67687 88.7181 9.71716 90.2294 9.71716H90.2585H90.2589ZM95.0016 25.113H99.5039V17.5488C99.5039 17.1444 99.5334 16.7391 99.6522 16.4503C99.9776 15.641 100.718 14.8033 101.963 14.8033C103.591 14.8033 104.243 16.0455 104.243 17.8668V25.113H108.746V17.3458C108.746 13.1851 106.525 11.2489 103.562 11.2489C101.134 11.2489 100.067 12.6063 99.4743 13.5309H99.5042V11.5668H95.002C95.0606 12.8376 95.0016 25.113 95.0016 25.113Z" fill="#0E0A0F"/>
</svg>
