<svg width="142" height="30" viewBox="0 0 142 30" fill="none" xmlns="http://www.w3.org/2000/svg">
<path d="M141.022 13.5713V11.1001H137.954V7.25815L137.85 7.28996L134.968 8.1719L134.911 8.18916V11.1002H130.361V9.4785C130.361 8.72338 130.53 8.14553 130.863 7.76015C131.193 7.3794 131.666 7.18583 132.269 7.18583C132.702 7.18583 133.151 7.28792 133.603 7.48924L133.716 7.5398V4.93721L133.663 4.91763C133.241 4.7662 132.668 4.68994 131.958 4.68994C131.063 4.68994 130.25 4.88474 129.54 5.27079C128.831 5.65739 128.272 6.20928 127.881 6.91097C127.492 7.61185 127.294 8.42134 127.294 9.31714V11.1001H125.157V13.5713H127.294V23.9824H130.361V13.5713H134.911V20.1874C134.911 22.9122 136.196 24.293 138.731 24.293C139.147 24.293 139.586 24.2442 140.033 24.1487C140.489 24.0505 140.799 23.9525 140.982 23.8478L141.023 23.8239V21.3298L140.898 21.4123C140.731 21.5232 140.524 21.6139 140.281 21.6813C140.037 21.75 139.833 21.7844 139.675 21.7844C139.081 21.7844 138.642 21.6244 138.369 21.3086C138.094 20.99 137.954 20.4328 137.954 19.6533V13.5713H141.022ZM118.306 21.7848C117.193 21.7848 116.315 21.4156 115.696 20.6883C115.074 19.9574 114.759 18.9153 114.759 17.5913C114.759 16.2253 115.074 15.1562 115.697 14.4124C116.316 13.6734 117.185 13.2984 118.281 13.2984C119.345 13.2984 120.192 13.6566 120.798 14.3636C121.408 15.0742 121.717 16.1348 121.717 17.5167C121.717 18.9156 121.426 19.9902 120.853 20.709C120.283 21.4224 119.426 21.7848 118.306 21.7848ZM118.443 10.7897C116.318 10.7897 114.631 11.4122 113.428 12.6398C112.226 13.8675 111.616 15.5666 111.616 17.6901C111.616 19.7071 112.211 21.3295 113.385 22.5115C114.559 23.6938 116.156 24.2927 118.132 24.2927C120.191 24.2927 121.845 23.6616 123.047 22.417C124.25 21.1737 124.859 19.4907 124.859 17.4168C124.859 15.3683 124.287 13.7338 123.159 12.5597C122.031 11.3851 120.444 10.7897 118.443 10.7897ZM106.67 10.7897C105.226 10.7897 104.03 11.1593 103.117 11.8881C102.199 12.6212 101.733 13.5826 101.733 14.7461C101.733 15.3509 101.833 15.8881 102.031 16.3437C102.23 16.8009 102.538 17.2034 102.948 17.5412C103.354 17.8762 103.981 18.2272 104.812 18.5843C105.511 18.8718 106.032 19.115 106.363 19.3067C106.687 19.4945 106.916 19.6834 107.046 19.8673C107.172 20.0472 107.236 20.2936 107.236 20.5975C107.236 21.463 106.588 21.8841 105.254 21.8841C104.759 21.8841 104.195 21.7808 103.577 21.5772C102.963 21.3766 102.384 21.0829 101.86 20.7064L101.732 20.615V23.5685L101.779 23.5902C102.213 23.7906 102.76 23.9596 103.405 24.0925C104.049 24.2256 104.634 24.2933 105.142 24.2933C106.71 24.2933 107.973 23.9219 108.894 23.1888C109.821 22.4507 110.291 21.4665 110.291 20.2628C110.291 19.3945 110.038 18.6498 109.54 18.0493C109.045 17.4536 108.185 16.9068 106.986 16.4234C106.031 16.04 105.419 15.7218 105.167 15.4775C104.924 15.2416 104.8 14.9078 104.8 14.4852C104.8 14.1106 104.953 13.8104 105.266 13.5674C105.581 13.3231 106.02 13.1989 106.571 13.1989C107.082 13.1989 107.605 13.2796 108.125 13.4379C108.645 13.5961 109.101 13.808 109.482 14.0672L109.608 14.1529V11.3513L109.56 11.3306C109.208 11.1798 108.745 11.0508 108.182 10.9462C107.621 10.8422 107.113 10.7897 106.67 10.7897ZM93.7354 21.7848C92.6222 21.7848 91.7441 21.4156 91.1256 20.6883C90.503 19.9574 90.1882 18.9156 90.1882 17.5913C90.1882 16.2253 90.5034 15.1562 91.1263 14.4124C91.7448 13.6734 92.6141 13.2984 93.7108 13.2984C94.7741 13.2984 95.6208 13.6566 96.2275 14.3636C96.8371 15.0742 97.1464 16.1348 97.1464 17.5167C97.1464 18.9156 96.8554 19.9902 96.2817 20.709C95.712 21.4224 94.8558 21.7848 93.7354 21.7848ZM93.8721 10.7897C91.7474 10.7897 90.06 11.4122 88.8577 12.6398C87.6555 13.8675 87.0455 15.5666 87.0455 17.6901C87.0455 19.708 87.6409 21.3295 88.8146 22.5115C89.9882 23.6938 91.5853 24.2927 93.5614 24.2927C95.6203 24.2927 97.2743 23.6616 98.4768 22.417C99.6788 21.1737 100.288 19.4907 100.288 17.4168C100.288 15.3683 99.7165 13.7338 98.5884 12.5597C97.4597 11.3851 95.8728 10.7897 93.8721 10.7897ZM82.389 13.331V11.1001H79.3587V23.9821H82.389V17.3925C82.389 16.2719 82.643 15.3514 83.1444 14.6561C83.6393 13.9691 84.2988 13.621 85.1041 13.621C85.3771 13.621 85.6835 13.666 86.0153 13.755C86.3437 13.8435 86.5816 13.9396 86.7219 14.0407L86.8492 14.133V11.078L86.8002 11.057C86.518 10.9371 86.1187 10.8766 85.6136 10.8766C84.8521 10.8766 84.1707 11.1213 83.587 11.603C83.0746 12.0264 82.7043 12.607 82.4212 13.331H82.389ZM73.9321 10.7897C72.5419 10.7897 71.3019 11.0878 70.2472 11.6755C69.1903 12.2645 68.3729 13.1054 67.8168 14.1746C67.2632 15.2413 66.9821 16.4873 66.9821 17.8768C66.9821 19.0939 67.2546 20.2109 67.7933 21.1953C68.3323 22.1814 69.0951 22.9528 70.0608 23.4879C71.0251 24.0222 72.1397 24.2932 73.3737 24.2932C74.8138 24.2932 76.0433 24.0052 77.0291 23.4374L77.0689 23.4146V20.6384L76.9415 20.7314C76.495 21.0567 75.996 21.3163 75.459 21.5034C74.9235 21.6903 74.4352 21.7848 74.007 21.7848C72.818 21.7848 71.8634 21.4127 71.1706 20.6792C70.4762 19.9448 70.1242 18.9134 70.1242 17.6157C70.1242 16.3097 70.4913 15.2519 71.2149 14.4714C71.9363 13.6931 72.8926 13.2984 74.057 13.2984C75.053 13.2984 76.0236 13.6356 76.9418 14.3017L77.0689 14.394V11.4688L77.0279 11.4457C76.6823 11.2523 76.211 11.0926 75.626 10.9715C75.0434 10.8506 74.4735 10.7897 73.9321 10.7897ZM64.8951 11.1002H61.8648V23.9821H64.8951V11.1002ZM63.4109 5.61239C62.9122 5.61239 62.4772 5.78217 62.1198 6.11861C61.761 6.456 61.5789 6.88079 61.5789 7.38212C61.5789 7.87556 61.7588 8.29261 62.1143 8.62102C62.4674 8.94849 62.9038 9.11447 63.4111 9.11447C63.9182 9.11447 64.3562 8.94849 64.7136 8.62157C65.0733 8.29261 65.2557 7.8757 65.2557 7.38212C65.2557 6.89833 65.0782 6.47788 64.7284 6.1322C64.3789 5.7872 63.9355 5.61239 63.4109 5.61239ZM55.8503 10.1497V23.9821H58.9428V6.00674H54.6626L49.2223 19.3583L43.9427 6.00674H39.4883V23.982H42.3944V10.1484H42.4942L48.0693 23.9821H50.2624L55.7505 10.1497H55.8503Z" fill="#888888"/>
<path d="M14.756 14.2552H0.500854V0H14.756V14.2552Z" fill="#888888"/>
<path d="M30.4952 14.2552H16.2404V0H30.4952V14.2552Z" fill="#888888"/>
<path d="M14.7556 30H0.500854V15.745H14.7556V30Z" fill="#888888"/>
<path d="M30.4952 30H16.2404V15.745H30.4952V30Z" fill="#888888"/>
</svg>
