<svg width="119" height="30" viewBox="0 0 119 30" fill="none" xmlns="http://www.w3.org/2000/svg">
<path d="M21.8713 2.2621C20.4822 0.678785 17.9711 -1.90735e-05 14.7589 -1.90735e-05H5.43571C5.11772 -0.000188828 4.81011 0.113144 4.56823 0.319576C4.32635 0.526011 4.16609 0.811991 4.11628 1.12606L0.236001 25.7479C0.218009 25.8622 0.224992 25.9789 0.256471 26.0902C0.287949 26.2014 0.343174 26.3046 0.418341 26.3924C0.493508 26.4803 0.586829 26.5508 0.691876 26.5991C0.796923 26.6475 0.911198 26.6725 1.02683 26.6724H6.78253L8.22809 17.5036L8.18328 17.7907C8.23213 17.4773 8.39132 17.1916 8.63216 16.9851C8.87301 16.7786 9.17967 16.665 9.4969 16.6646H12.232C17.6052 16.6646 21.8124 14.4822 23.0414 8.16883C23.0779 7.98211 23.1094 7.80038 23.1368 7.6228C23.5019 5.28932 23.1343 3.70102 21.8721 2.26293" fill="#888888"/>
<path d="M92.3337 13.9785C91.9818 16.2888 90.2176 16.2888 88.5115 16.2888H87.5406L88.2219 11.9753C88.2634 11.7147 88.4874 11.5231 88.7513 11.5231H89.1969C90.3587 11.5231 91.4557 11.5231 92.0217 12.1844C92.3594 12.5803 92.4615 13.1678 92.3337 13.9785ZM91.591 7.95064H85.1548C84.9417 7.95075 84.7355 8.02683 84.5734 8.16523C84.4113 8.30363 84.3038 8.49528 84.2702 8.70579L81.6695 25.2086C81.6576 25.2851 81.6623 25.3633 81.6834 25.4378C81.7045 25.5123 81.7414 25.5814 81.7917 25.6403C81.842 25.6992 81.9044 25.7465 81.9747 25.779C82.045 25.8114 82.1215 25.8283 82.199 25.8285H85.5017C85.8096 25.8285 86.0718 25.6044 86.1199 25.3007L86.8585 20.6205C86.9265 20.1865 87.3016 19.8653 87.7414 19.8653H89.7778C94.0182 19.8653 96.4646 17.8148 97.1035 13.7478C97.3915 11.9703 97.1152 10.5729 96.2828 9.59453C95.3675 8.51908 93.7452 7.94981 91.5918 7.94981" fill="#888888"/>
<path d="M46.4278 13.9785C46.076 16.2888 44.3117 16.2888 42.6048 16.2888H41.6339L42.3152 11.9753C42.3567 11.7147 42.5807 11.523 42.8446 11.523H43.2902C44.452 11.523 45.549 11.523 46.115 12.1844C46.4535 12.5803 46.5556 13.1678 46.4278 13.9785ZM45.6851 7.95063H39.249C38.8091 7.95063 38.4341 8.27095 38.3652 8.70578L35.7637 25.2086C35.7516 25.2851 35.7562 25.3634 35.7772 25.4379C35.7982 25.5125 35.8352 25.5816 35.8855 25.6406C35.9358 25.6995 35.9983 25.7468 36.0687 25.7792C36.1391 25.8117 36.2156 25.8285 36.2931 25.8285H39.3668C39.8066 25.8285 40.1809 25.5082 40.2497 25.0733L40.9526 20.6213C41.0206 20.1865 41.3957 19.8662 41.8355 19.8662H43.8719C48.1124 19.8662 50.5587 17.8148 51.1977 13.7478C51.4856 11.9703 51.2093 10.5729 50.377 9.59452C49.4617 8.51906 47.8394 7.9498 45.6859 7.9498M60.6279 19.9035C60.3291 21.6644 58.9325 22.8469 57.1492 22.8469C56.2555 22.8469 55.5393 22.559 55.0796 22.0146C54.6232 21.4752 54.4523 20.7059 54.5967 19.8504C54.8738 18.1044 56.2945 16.8846 58.0504 16.8846C58.9259 16.8846 59.6354 17.175 60.1051 17.7244C60.5772 18.2779 60.7631 19.0513 60.6279 19.9035ZM64.9231 13.9038H61.8411C61.7129 13.9037 61.589 13.9493 61.4916 14.0326C61.3942 14.1158 61.3298 14.2312 61.31 14.3577L61.1755 15.2191L60.9598 14.9071C60.2926 13.9387 58.8047 13.6142 57.3193 13.6142C53.9145 13.6142 51.006 16.195 50.44 19.813C50.1454 21.6196 50.5637 23.3448 51.5877 24.5489C52.5279 25.655 53.8697 26.1156 55.4688 26.1156C58.2139 26.1156 59.7358 24.353 59.7358 24.353L59.598 25.2094C59.5859 25.286 59.5906 25.3643 59.6116 25.439C59.6327 25.5136 59.6697 25.5828 59.7202 25.6417C59.7706 25.7006 59.8332 25.7479 59.9036 25.7803C59.9741 25.8127 60.0507 25.8294 60.1283 25.8293H62.9032C63.3431 25.8293 63.7181 25.5098 63.787 25.0742L65.4533 14.5245C65.4653 14.4479 65.4605 14.3696 65.4394 14.2949C65.4182 14.2203 65.3811 14.1512 65.3306 14.0922C65.2801 14.0333 65.2175 13.9861 65.147 13.9537C65.0765 13.9213 64.9998 13.9046 64.9222 13.9047" fill="#888888"/>
<path d="M106.534 19.9035C106.235 21.6644 104.839 22.8469 103.055 22.8469C102.162 22.8469 101.445 22.559 100.986 22.0146C100.529 21.4752 100.358 20.7059 100.503 19.8504C100.78 18.1044 102.2 16.8846 103.956 16.8846C104.832 16.8846 105.541 17.175 106.011 17.7244C106.483 18.2779 106.669 19.0513 106.534 19.9035ZM110.829 13.9038H107.747C107.619 13.9037 107.495 13.9493 107.398 14.0326C107.3 14.1158 107.236 14.2312 107.216 14.3577L107.082 15.2191L106.866 14.9071C106.199 13.9387 104.711 13.6142 103.225 13.6142C99.8214 13.6142 96.9129 16.195 96.3461 19.813C96.0515 21.6196 96.4706 23.3448 97.4946 24.5489C98.4348 25.655 99.7766 26.1156 101.376 26.1156C104.122 26.1156 105.643 24.353 105.643 24.353L105.506 25.2094C105.493 25.2859 105.498 25.3642 105.519 25.4388C105.539 25.5135 105.576 25.5827 105.627 25.6417C105.677 25.7006 105.739 25.748 105.81 25.7804C105.88 25.8128 105.957 25.8295 106.034 25.8293H108.808C109.248 25.8293 109.623 25.5098 109.693 25.0742L111.359 14.5245C111.371 14.4479 111.367 14.3696 111.345 14.2949C111.324 14.2203 111.287 14.1512 111.237 14.0922C111.186 14.0333 111.124 13.9861 111.053 13.9537C110.983 13.9213 110.906 13.9046 110.828 13.9047" fill="#888888"/>
<path d="M81.3378 13.9046H78.2392C77.943 13.9046 77.6667 14.0515 77.5007 14.2971L73.2271 20.5906L71.4155 14.5428C71.3603 14.3583 71.2471 14.1965 71.0927 14.0815C70.9383 13.9664 70.7509 13.9041 70.5583 13.9038H67.5137C67.4283 13.9038 67.3442 13.9242 67.2683 13.9633C67.1923 14.0024 67.1269 14.059 67.0772 14.1284C67.0275 14.1979 66.9952 14.2782 66.9828 14.3626C66.9703 14.4471 66.9783 14.5333 67.0058 14.6141L70.4164 24.6269L67.2083 29.1536C67.1516 29.2339 67.1181 29.3283 67.1114 29.4264C67.1046 29.5245 67.125 29.6226 67.1702 29.7099C67.2154 29.7972 67.2837 29.8705 67.3677 29.9216C67.4517 29.9728 67.5481 29.9999 67.6465 30H70.7417C71.0338 30 71.3085 29.8564 71.4761 29.6158L81.7776 14.7469C81.8336 14.6665 81.8664 14.5724 81.8726 14.4746C81.8788 14.3769 81.8581 14.2794 81.8128 14.1926C81.7675 14.1058 81.6993 14.033 81.6155 13.9823C81.5318 13.9315 81.4357 13.9047 81.3378 13.9046Z" fill="#888888"/>
<path d="M114.461 8.40446L111.819 25.2093C111.807 25.2859 111.812 25.3642 111.833 25.4388C111.854 25.5133 111.891 25.5824 111.941 25.6413C111.992 25.7002 112.054 25.7475 112.125 25.78C112.195 25.8124 112.272 25.8292 112.349 25.8292H115.005C115.445 25.8292 115.82 25.5089 115.889 25.0741L118.494 8.57043C118.506 8.49383 118.502 8.41552 118.481 8.34088C118.459 8.26625 118.422 8.19708 118.372 8.13815C118.322 8.07922 118.259 8.03193 118.189 7.99954C118.118 7.96715 118.041 7.95044 117.964 7.95055H114.991C114.863 7.95022 114.74 7.99575 114.642 8.07887C114.545 8.16198 114.481 8.27803 114.461 8.40446Z" fill="#888888"/>
<path d="M21.8713 2.2621C20.4822 0.678785 17.9711 -1.90735e-05 14.7589 -1.90735e-05H5.43571C5.11772 -0.000188828 4.81011 0.113144 4.56823 0.319576C4.32635 0.526011 4.16609 0.811991 4.11628 1.12606L0.236001 25.7479C0.218009 25.8622 0.224992 25.9789 0.256471 26.0902C0.287949 26.2014 0.343174 26.3046 0.418341 26.3924C0.493508 26.4803 0.586829 26.5508 0.691876 26.5991C0.796923 26.6475 0.911198 26.6725 1.02683 26.6724H6.78253L8.22809 17.5036L8.18328 17.7907C8.23213 17.4773 8.39132 17.1916 8.63216 16.9851C8.87301 16.7786 9.17967 16.665 9.4969 16.6646H12.232C17.6052 16.6646 21.8124 14.4822 23.0414 8.16883C23.0779 7.98211 23.1094 7.80038 23.1368 7.6228C23.5019 5.28932 23.1343 3.70102 21.8721 2.26293" fill="#888888"/>
<path d="M9.78075 7.65347C9.82436 7.37905 9.96435 7.12915 10.1756 6.94862C10.3868 6.7681 10.6555 6.66877 10.9334 6.66847H18.2425C19.108 6.66847 19.9155 6.72489 20.6532 6.84273C21.0565 6.90762 21.4556 6.99685 21.8481 7.10994C22.2939 7.23527 22.7253 7.40717 23.1352 7.62277C23.502 5.28846 23.1335 3.701 21.8714 2.26207C20.4814 0.679588 17.9712 0.000785828 14.7589 0.000785828H5.43493C5.11722 0.00101089 4.81 0.114519 4.56847 0.320917C4.32694 0.527315 4.16692 0.813078 4.11716 1.12687L0.235217 25.7462C0.217103 25.8605 0.223967 25.9772 0.255336 26.0886C0.286706 26.1999 0.341836 26.303 0.416925 26.391C0.492015 26.4789 0.585281 26.5496 0.690294 26.598C0.795307 26.6464 0.909572 26.6715 1.02521 26.6715H6.78174L8.22731 17.5019L9.78075 7.65347Z" fill="#888888"/>
<path d="M23.1362 7.62199C23.1077 7.80457 23.0759 7.9866 23.0407 8.16801C21.8118 14.4805 17.6045 16.6638 12.2314 16.6638H9.49542C9.17824 16.664 8.8716 16.7777 8.63086 16.9842C8.39011 17.1907 8.23114 17.4764 8.18263 17.7899L6.78188 26.6707L6.38356 29.1901C6.36772 29.2901 6.37376 29.3924 6.40126 29.4898C6.42876 29.5873 6.47707 29.6776 6.54286 29.7546C6.60864 29.8316 6.69034 29.8934 6.78232 29.9358C6.8743 29.9781 6.97437 30 7.07564 30H11.9277C12.5019 30 12.9898 29.5818 13.0803 29.015L13.1276 28.7677L14.0421 22.9722L14.1001 22.6519C14.1436 22.3772 14.2837 22.1271 14.4951 21.9465C14.7066 21.766 14.9755 21.6668 15.2536 21.6669H15.9797C20.6799 21.6669 24.3602 19.7582 25.4356 14.2349C25.8837 11.928 25.6514 10.0003 24.4647 8.64683C24.0879 8.22721 23.6377 7.87991 23.1362 7.62199Z" fill="#5D5D5D"/>
<path d="M21.849 7.11001C21.6615 7.05441 21.4681 7.00462 21.269 6.96064C21.0698 6.91666 20.864 6.87766 20.6532 6.84447C19.9147 6.72414 19.1081 6.66771 18.2418 6.66771H10.9334C10.6553 6.66737 10.3861 6.76658 10.1747 6.94739C9.96334 7.1282 9.82361 7.37868 9.78081 7.65355L8.22737 17.5036L8.18256 17.7899C8.23106 17.4765 8.39004 17.1907 8.63078 16.9842C8.87153 16.7777 9.17817 16.6641 9.49535 16.6638H12.2313C17.6044 16.6638 21.8117 14.4814 23.0407 8.16804C23.0772 7.98133 23.1079 7.80043 23.1361 7.62202C22.8115 7.45219 22.4735 7.30953 22.1254 7.19549C22.0349 7.16561 21.9428 7.13823 21.849 7.11001Z" fill="#888888"/>
</svg>
