<svg width="141" height="30" viewBox="0 0 141 30" fill="none" xmlns="http://www.w3.org/2000/svg">
<path d="M45.9111 12.1498V8.30041H42.0498V2.11676H36.5537V8.29971H33.5849V12.1491H36.5537V20.7075C36.5537 25.9366 39.9136 28.8796 45.9111 28.9228V24.3623C43.3683 24.3107 42.0498 22.7719 42.0498 19.8722V12.1498H45.9111ZM119.627 8.29762V28.2249H116.351V8.29762H119.627ZM126.809 8.29762V11.4588H126.888C128.25 9.04295 130.406 7.83467 133.363 7.83467C134.673 7.83467 135.767 8.01525 136.64 8.37571C137.512 8.73478 138.22 9.23678 138.761 9.87822C139.299 10.5211 139.679 11.2859 139.898 12.1714C140.116 13.0582 140.225 14.0406 140.225 15.1199V28.2249H136.949V14.7344C136.949 13.4996 136.589 12.5249 135.871 11.8053C135.152 11.0865 134.16 10.726 132.902 10.726C131.901 10.726 131.033 10.8801 130.3 11.1883C129.568 11.4986 128.958 11.9343 128.471 12.4991C127.973 13.0792 127.599 13.7549 127.371 14.4848C127.125 15.2426 127.005 16.0716 127.005 16.9703V28.2249H123.729V8.29762H126.809ZM62.507 28.2249V25.4506H62.3898C61.6975 26.6066 60.7981 27.4419 59.6923 27.9558C58.5872 28.4696 57.4563 28.7269 56.2982 28.7269C54.8348 28.7269 53.6342 28.5331 52.6971 28.1475C51.7572 27.7612 51.0189 27.2167 50.4799 26.509C49.9396 25.8027 49.561 24.9431 49.3414 23.9272C49.1238 22.9114 49.0151 21.7888 49.0151 20.5534V8.29623H54.4875V19.5522C54.4875 21.1955 54.7441 22.424 55.258 23.2321C55.7718 24.0423 56.6838 24.4473 57.9939 24.4473C59.4852 24.4473 60.5645 24.0039 61.2318 23.117C61.9018 22.2316 62.2358 20.7744 62.2358 18.7441V8.29762H67.7096V28.2249H62.507ZM76.5594 8.29762V11.0733H76.6752C77.3668 9.91657 78.2683 9.07433 79.3713 8.54862C80.4771 8.02222 81.6101 7.75867 82.7647 7.75867C84.2289 7.75867 85.4316 7.95808 86.3707 8.35479C87.3078 8.7536 88.0461 9.3058 88.5865 10.0128C89.1254 10.7198 89.504 11.5808 89.7236 12.596C89.9412 13.6111 90.052 14.7351 90.052 15.9677V28.2249H84.5789V16.9703C84.5789 15.3263 84.3188 14.0992 83.8063 13.2883C83.2911 12.4796 82.3791 12.0752 81.0704 12.0752C79.5798 12.0752 78.4998 12.5186 77.8312 13.4048C77.1639 14.2923 76.8293 15.7509 76.8293 17.7805V28.2249H71.3554V8.29762H76.5594ZM99.5537 23.4461C100.376 24.2431 101.558 24.6412 103.1 24.6412C104.204 24.6412 105.157 24.3651 105.953 23.8129C106.75 23.26 107.24 22.6757 107.417 22.0587H112.236C111.466 24.448 110.282 26.1583 108.69 27.1846C107.097 28.2123 105.17 28.7276 102.911 28.7276C101.341 28.7276 99.9289 28.4752 98.669 27.9753C97.4091 27.474 96.3417 26.7607 95.4701 25.8362C94.5972 24.911 93.9209 23.8066 93.4468 22.5216C92.9713 21.2366 92.7328 19.8227 92.7328 18.2811C92.7328 16.7905 92.979 15.4044 93.4649 14.118C93.9537 12.833 94.6467 11.7217 95.5482 10.7832C96.4469 9.84545 97.5207 9.10709 98.7666 8.56675C100.013 8.0278 101.394 7.75867 102.911 7.75867C104.606 7.75867 106.085 8.08636 107.342 8.74036C108.6 9.39574 109.635 10.2763 110.445 11.3821C111.254 12.4879 111.84 13.7457 112.201 15.1597C112.56 16.5715 112.687 18.0496 112.586 19.5912H98.2088C98.2813 21.3642 98.7296 22.6492 99.5537 23.4461ZM105.739 12.9606C105.085 12.2418 104.089 11.8813 102.754 11.8813C101.879 11.8813 101.153 12.0319 100.574 12.3255C99.9951 12.6218 99.5349 12.9871 99.1891 13.4236C98.8405 13.8607 98.5965 14.3237 98.4535 14.8111C98.3134 15.2998 98.229 15.7363 98.2046 16.1225H107.109C106.852 14.7344 106.396 13.6816 105.739 12.9606ZM120.104 2.11676C120.104 2.67798 119.881 3.21613 119.484 3.61284C119.087 4.00955 118.549 4.23231 117.988 4.23213C117.426 4.23194 116.888 4.00882 116.491 3.61186C116.095 3.21489 115.872 2.67658 115.872 2.11537C115.872 1.55415 116.095 1.016 116.492 0.619288C116.889 0.22258 117.428 -0.000184799 117.989 1.1503e-07C118.55 0.000185029 119.088 0.223304 119.485 0.620274C119.882 1.01724 120.104 1.55555 120.104 2.11676Z" fill="#888888"/>
<path d="M14.2007 10.4757C12.9278 10.4742 11.7074 9.96792 10.8072 9.06789C9.90705 8.16785 9.4006 6.94754 9.39894 5.67461C9.39662 5.04398 9.51955 4.41916 9.7606 3.83641C10.0016 3.25366 10.356 2.72457 10.8031 2.27985C11.2481 1.83263 11.7772 1.47808 12.36 1.23669C12.9429 0.995308 13.5678 0.871881 14.1986 0.873552C15.4716 0.875028 16.6921 1.3814 17.5923 2.28158C18.4925 3.18177 18.9989 4.40226 19.0003 5.67531C18.9994 6.94804 18.4935 8.16839 17.5936 9.06841C16.6937 9.96844 15.4734 10.4746 14.2007 10.4757ZM0.779907 12.3972C0.779907 12.1455 0.984193 11.9412 1.23659 11.9412H14.1602C16.4918 11.9412 18.3882 13.8307 18.3882 16.1538V19.9077C18.3882 19.9679 18.3763 20.0275 18.3533 20.0831C18.3302 20.1388 18.2964 20.1893 18.2538 20.2318C18.2112 20.2744 18.1606 20.3081 18.1049 20.3311C18.0493 20.3541 17.9896 20.3658 17.9294 20.3657C17.9218 20.3657 17.912 20.3657 17.9029 20.3671L4.99181 20.365C3.87496 20.3636 2.80429 19.9192 2.01468 19.1293C1.22508 18.3394 0.781014 17.2686 0.779907 16.1517L0.779907 12.3972ZM23.8112 11.8806H27.5141C27.7651 11.8806 27.9701 12.0863 27.9701 12.3366V16.0932C27.969 17.2099 27.5249 18.2806 26.7352 19.0702C25.9456 19.8599 24.8749 20.304 23.7582 20.3051L20.065 20.3044C20.0042 20.3058 19.9437 20.295 19.8871 20.2728C19.8305 20.2505 19.7789 20.2171 19.7353 20.1747C19.6917 20.1322 19.6571 20.0815 19.6334 20.0255C19.6096 19.9694 19.5973 19.9092 19.5972 19.8484V16.0939C19.5985 14.9767 20.0429 13.9057 20.8329 13.1158C21.6229 12.3259 22.694 11.8817 23.8112 11.8806ZM17.9301 21.5761H10.4706C10.3496 21.5765 10.2336 21.6247 10.148 21.7103C10.0625 21.7958 10.0143 21.9118 10.0139 22.0328V29.5447C10.0139 29.8005 10.2203 29.9992 10.4824 29.9992L14.1749 29.9999C15.2921 29.9988 16.3631 29.5546 17.1532 28.7647C17.9432 27.9748 18.3876 26.9038 18.3889 25.7866V22.0321C18.388 21.911 18.3393 21.7951 18.2533 21.7097C18.1674 21.6243 18.0513 21.5763 17.9301 21.5761Z" fill="#888888"/>
</svg>
