<svg width="29" height="20" viewBox="0 0 29 20" fill="none" xmlns="http://www.w3.org/2000/svg">
<path d="M16.4661 15.7837L14.7799 20L13.0937 15.7837C12.6579 14.6946 11.8407 13.7028 10.7194 12.9018C9.59808 12.1009 8.20953 11.5172 6.6848 11.2059L0.779907 10L6.68272 8.79556C8.20746 8.48426 9.596 7.90059 10.7173 7.09964C11.8387 6.29869 12.6558 5.30687 13.0916 4.21778L14.7799 0L16.4661 4.2163C16.9019 5.30539 17.7191 6.29721 18.8404 7.09816C19.9617 7.89911 21.3503 8.48277 22.875 8.79407L28.7799 10L22.8771 11.2044C21.3524 11.5157 19.9638 12.0994 18.8425 12.9004C17.7212 13.7013 16.904 14.6931 16.4682 15.7822L16.4661 15.7837Z" fill="#888888"/>
</svg>
